<svg xmlns="http://www.w3.org/2000/svg" viewBox="0 0 150.72 17.33" xmlns:v="https://vecta.io/nano"><defs><clipPath id="A"><path d="M0 0h150.72v17.33H0z" fill="none"/></clipPath><clipPath id="B"><path d="M0 0h150.72v17.33H0z" fill="none"/></clipPath></defs><g clip-path="url(#A)"><path d="M96.71 9.67h5.61v1.3h-5.61z" fill="#fff"/><g clip-path="url(#B)" fill="#fff"><path d="M3.41 1.79l-.5 13.03v.23c0 1.1.33 1.33 2.08 1.46v.6l-2.49-.13c-.71 0-1.21.03-2.51.13v-.6c1.76-.13 2.01-.33 2.06-1.68l.54-12.34v-.15C2.59 1.19 2.24.93.51.83V.21l2.06.1c.8 0 1.59-.03 2.38-.12l4.67 12.7L14.36.18l2.41.13c.63 0 1.03-.03 1.98-.1v.63c-1.71.1-2.08.35-2.08 1.48v.18l.28 12.33c.02 1.36.25 1.56 2.06 1.68v.6l-3.14-.2c-.96 0-1.56.05-3.14.2v-.6c1.71-.1 2.08-.38 2.08-1.56v-.13l-.23-13.01-4.14 11.2-.3.83-.35.93-.33.95-.28.83H8.8l-.28-.8-.35-.98-.35-.98-.3-.88L3.41 1.79zm22.12 14.69c-2.29 0-3.29-1.76-3.31-5.67h7.48c-.05-3.87-1.63-5.93-4.59-5.93s-4.9 2.44-4.9 6.3 1.88 6.13 5.12 6.13c2.46 0 4.07-1.53 4.39-4.12h-1c-.3 2.13-1.41 3.29-3.19 3.29M22.27 9.9c.25-2.89 1.21-4.37 2.81-4.37s2.46 1.41 2.61 4.37h-5.42zm8.93-4.09v-.45c1.43-.13 2.28-.28 3.31-.58l.23 2.08v.28c.55-1.43 1.63-2.26 2.94-2.26s2.18.83 2.18 2.03c0 .73-.43 1.21-1.05 1.21-.58 0-1.03-.35-1.03-.85 0-.08.03-.17.05-.25l.05-.25v-.23c0-.35-.3-.6-.75-.6-1.31 0-2.13 1.58-2.13 4.07v5.25c0 1.08.25 1.28 1.78 1.35v.5l-2.79-.15c-.88 0-1.43.03-2.81.15v-.5c1.53-.07 1.81-.28 1.81-1.35V7.04c-.02-1.08-.15-1.21-1.46-1.23h-.33zm18.26-1.16v4.14h-.55c-.45-2.18-1.38-3.24-2.91-3.24-1.88 0-2.99 2.03-2.99 5.62s.98 5.3 2.91 5.3c1.56 0 2.49-1.1 2.79-3.31h1.03c-.33 2.69-1.76 4.14-4.02 4.14-2.91 0-4.9-2.46-4.9-6.13s2.01-6.3 4.97-6.3c1.08 0 1.76.28 2.56 1.05l.68-1.28h.43zm7.39 11.83c-2.28 0-3.29-1.76-3.31-5.67h7.48c-.05-3.87-1.63-5.93-4.59-5.93s-4.9 2.44-4.9 6.3 1.88 6.13 5.12 6.13c2.46 0 4.07-1.53 4.39-4.12h-1c-.3 2.13-1.41 3.29-3.19 3.29M53.59 9.9c.25-2.89 1.21-4.37 2.81-4.37s2.46 1.41 2.61 4.37h-5.42zm19.1 4.6V0c-1.24.33-2.51.56-3.79.69v.43c1.58 0 1.78.18 1.78 1.48v4.39c-.93-1.51-1.66-1.96-3.01-1.96-2.69 0-4.57 2.54-4.57 6.15s1.91 6.15 4.64 6.15c1.43 0 2.41-.65 3.11-2.06.1.95.1 1.05.35 2.01 1.03-.33 1.46-.43 2.94-.6l.38-.05v-.43c-1.68-.05-1.83-.18-1.83-1.71m-4.72 2.14c-1.81 0-2.76-1.88-2.76-5.47s.88-5.42 2.69-5.42 2.81 1.91 2.81 5.6c0 3.49-.93 5.3-2.74 5.3m12.83-.16c-2.29 0-3.29-1.76-3.31-5.67h7.48c-.05-3.87-1.63-5.93-4.6-5.93s-4.9 2.44-4.9 6.3 1.88 6.13 5.12 6.13c2.46 0 4.07-1.53 4.39-4.12h-1c-.3 2.13-1.41 3.29-3.19 3.29M77.53 9.9c.25-2.89 1.2-4.37 2.81-4.37s2.46 1.41 2.61 4.37h-5.42zm9.56 7.43v-4.19l.55-.03c.45 2.28 1.51 3.39 3.26 3.39 1.48 0 2.59-.98 2.59-2.26 0-.85-.48-1.43-1.71-1.98l-.95-.43-1.15-.53c-1.83-.85-2.41-1.56-2.41-3.01 0-1.98 1.56-3.34 3.77-3.34.98 0 1.71.23 2.56.8l.43-1.03h.45v3.89h-.58c-.23-2.01-1.05-2.96-2.64-2.96-1.33 0-2.36.9-2.36 2.08 0 1 .38 1.33 2.66 2.34l1.05.45c1.91.83 2.59 1.63 2.59 3.11 0 2.11-1.68 3.62-4.04 3.62-1.15 0-2.06-.3-3.01-1.05l-.6 1.13h-.45zm27.1-12.95c0-1.31-.55-2.46-1.51-3.19-.85-.63-1.83-.9-3.46-.9h-6.6v.62c1.81.1 2.06.3 2.06 1.66v12.18c0 1.36-.2 1.53-2.06 1.68v.61h6.35c1.86 0 2.86-.23 3.92-.88 1.26-.8 2.08-2.33 2.08-3.92 0-1.36-.58-2.59-1.56-3.34-.53-.4-1.08-.63-1.98-.8 1.81-.68 2.76-1.96 2.76-3.72m-7.4-3.32h2.13c2.11 0 3.04 1.03 3.04 3.37 0 1.15-.28 1.98-.83 2.64-.55.63-1.23.83-2.64.83h-1.71V1.06h0zm2.38 7.61c1.33 0 2.08.23 2.66.8.58.58.9 1.66.9 2.86 0 2.51-1.26 3.92-3.49 3.92h-.9c-1.33 0-1.56-.2-1.56-1.31V8.66h2.39m13.16 7.82c-2.29 0-3.29-1.76-3.32-5.67h7.48c-.05-3.87-1.63-5.93-4.59-5.93s-4.9 2.44-4.9 6.3 1.88 6.13 5.12 6.13c2.46 0 4.07-1.53 4.39-4.12h-1c-.3 2.13-1.41 3.29-3.19 3.29m-3.27-6.58c.25-2.89 1.21-4.37 2.81-4.37s2.46 1.41 2.61 4.37h-5.42zm8.77-3.99v-.43c1.46-.2 2.31-.4 3.31-.75.14.72.23 1.45.25 2.18.9-1.36 1.93-1.96 3.39-1.96s2.81.78 3.31 2.01c.25.6.38 1.31.38 2.26v6.03c0 1.08.25 1.28 1.78 1.35v.5l-2.74-.15c-.91 0-1.83.05-2.74.15v-.5c1.36-.05 1.68-.3 1.68-1.3V9.14c0-2.18-.65-3.06-2.26-3.06-1.71 0-2.61 1.08-2.61 3.14v6.08c0 1 .33 1.26 1.63 1.3v.5c-.9-.1-1.8-.15-2.71-.15s-1.81.05-2.71.15v-.5c1.53-.07 1.78-.28 1.78-1.35V7.11c-.03-1.03-.18-1.18-1.43-1.18-.07 0-.2-.02-.33-.02m13.43 11.12l6.8-11.2h-3.09c-1.63 0-2.03.35-2.94 2.61h-.5l.58-3.27h8.64l-6.83 11.2h2.94c1.71 0 2.41-.68 3.16-2.96h.53l-.66 3.62h-8.63z"/></g></g></svg>